<?xml version="1.0" standalone="no"?>
<!DOCTYPE svg PUBLIC "-//W3C//DTD SVG 20010904//EN"
 "http://www.w3.org/TR/2001/REC-SVG-20010904/DTD/svg10.dtd">
<svg version="1.0" xmlns="http://www.w3.org/2000/svg"
 width="300.000000pt" height="300.000000pt" viewBox="0 0 300.000000 300.000000"
 preserveAspectRatio="xMidYMid meet">
<metadata>
Created by potrace 1.15, written by Peter Selinger 2001-2017
</metadata>
<g transform="translate(0.000000,300.000000) scale(0.100000,-0.100000)"
fill="#d00000" stroke="none">
<path d="M50 1500 l0 -1450 1450 0 1450 0 0 1450 0 1450 -1450 0 -1450 0 0
-1450z m1052 843 l28 -27 0 -340 0 -341 368 368 367 367 125 0 125 0 18 -43
c9 -23 17 -47 17 -52 0 -5 -133 -143 -296 -306 l-296 -296 317 -459 c175 -252
319 -463 321 -469 2 -5 -6 -28 -19 -50 l-23 -40 -125 -3 -126 -3 -268 398
c-147 219 -272 402 -276 408 -6 6 -51 -33 -119 -100 l-110 -110 0 -269 0 -270
-27 -28 c-25 -27 -31 -28 -118 -28 -87 0 -93 1 -118 28 l-27 28 0 804 0 804
27 28 c25 27 31 28 117 28 84 0 92 -2 118 -27z"/>
</g>
</svg>
